<svg id="visual" viewBox="0 0 1920 1080" width="1920" height="1080" xmlns="http://www.w3.org/2000/svg" xmlns:xlink="http://www.w3.org/1999/xlink" version="1.1"><rect x="0" y="0" width="1920" height="1080" fill="#0E2A47"></rect><defs><linearGradient id="grad1_0" x1="43.8%" y1="100%" x2="100%" y2="0%"><stop offset="14.444444444444446%" stop-color="#173e67" stop-opacity="1"></stop><stop offset="85.55555555555554%" stop-color="#173e67" stop-opacity="1"></stop></linearGradient></defs><defs><linearGradient id="grad1_1" x1="43.8%" y1="100%" x2="100%" y2="0%"><stop offset="14.444444444444446%" stop-color="#173e67" stop-opacity="1"></stop><stop offset="85.55555555555554%" stop-color="#15395f" stop-opacity="1"></stop></linearGradient></defs><defs><linearGradient id="grad1_2" x1="43.8%" y1="100%" x2="100%" y2="0%"><stop offset="14.444444444444446%" stop-color="#123457" stop-opacity="1"></stop><stop offset="85.55555555555554%" stop-color="#15395f" stop-opacity="1"></stop></linearGradient></defs><defs><linearGradient id="grad1_3" x1="43.8%" y1="100%" x2="100%" y2="0%"><stop offset="14.444444444444446%" stop-color="#123457" stop-opacity="1"></stop><stop offset="85.55555555555554%" stop-color="#102f4f" stop-opacity="1"></stop></linearGradient></defs><defs><linearGradient id="grad1_4" x1="43.8%" y1="100%" x2="100%" y2="0%"><stop offset="14.444444444444446%" stop-color="#0e2a47" stop-opacity="1"></stop><stop offset="85.55555555555554%" stop-color="#102f4f" stop-opacity="1"></stop></linearGradient></defs><defs><linearGradient id="grad2_0" x1="0%" y1="100%" x2="56.3%" y2="0%"><stop offset="14.444444444444446%" stop-color="#173e67" stop-opacity="1"></stop><stop offset="85.55555555555554%" stop-color="#173e67" stop-opacity="1"></stop></linearGradient></defs><defs><linearGradient id="grad2_1" x1="0%" y1="100%" x2="56.3%" y2="0%"><stop offset="14.444444444444446%" stop-color="#15395f" stop-opacity="1"></stop><stop offset="85.55555555555554%" stop-color="#173e67" stop-opacity="1"></stop></linearGradient></defs><defs><linearGradient id="grad2_2" x1="0%" y1="100%" x2="56.3%" y2="0%"><stop offset="14.444444444444446%" stop-color="#15395f" stop-opacity="1"></stop><stop offset="85.55555555555554%" stop-color="#123457" stop-opacity="1"></stop></linearGradient></defs><defs><linearGradient id="grad2_3" x1="0%" y1="100%" x2="56.3%" y2="0%"><stop offset="14.444444444444446%" stop-color="#102f4f" stop-opacity="1"></stop><stop offset="85.55555555555554%" stop-color="#123457" stop-opacity="1"></stop></linearGradient></defs><defs><linearGradient id="grad2_4" x1="0%" y1="100%" x2="56.3%" y2="0%"><stop offset="14.444444444444446%" stop-color="#102f4f" stop-opacity="1"></stop><stop offset="85.55555555555554%" stop-color="#0e2a47" stop-opacity="1"></stop></linearGradient></defs><g transform="translate(1920, 1080)"><path d="M-594 0C-571.3 -46.6 -548.7 -93.3 -538 -144.2C-527.4 -195 -528.7 -250.2 -506.6 -292.5C-484.5 -334.8 -439 -364.4 -402.3 -402.3C-365.7 -440.3 -337.9 -486.7 -297 -514.4C-256.1 -542.1 -202.1 -551.1 -150.4 -561.2C-98.7 -571.3 -49.3 -582.7 0 -594L0 0Z" fill="#0f2c4b"></path><path d="M-475.2 0C-457.1 -37.3 -438.9 -74.6 -430.4 -115.3C-421.9 -156 -423 -200.1 -405.3 -234C-387.6 -267.9 -351.2 -291.5 -321.9 -321.9C-292.5 -352.3 -270.3 -389.4 -237.6 -411.5C-204.9 -433.7 -161.6 -440.8 -120.3 -449C-78.9 -457.1 -39.5 -466.1 0 -475.2L0 0Z" fill="#113153"></path><path d="M-356.4 0C-342.8 -28 -329.2 -56 -322.8 -86.5C-316.4 -117 -317.2 -150.1 -304 -175.5C-290.7 -200.9 -263.4 -218.6 -241.4 -241.4C-219.4 -264.2 -202.7 -292 -178.2 -308.7C-153.7 -325.3 -121.2 -330.6 -90.2 -336.7C-59.2 -342.8 -29.6 -349.6 0 -356.4L0 0Z" fill="#13365b"></path><path d="M-237.6 0C-228.5 -18.7 -219.5 -37.3 -215.2 -57.7C-210.9 -78 -211.5 -100.1 -202.6 -117C-193.8 -133.9 -175.6 -145.7 -160.9 -160.9C-146.3 -176.1 -135.2 -194.7 -118.8 -205.8C-102.4 -216.8 -80.8 -220.4 -60.1 -224.5C-39.5 -228.5 -19.7 -233.1 0 -237.6L0 0Z" fill="#163b63"></path><path d="M-118.8 0C-114.3 -9.3 -109.7 -18.7 -107.6 -28.8C-105.5 -39 -105.7 -50 -101.3 -58.5C-96.9 -67 -87.8 -72.9 -80.5 -80.5C-73.1 -88.1 -67.6 -97.3 -59.4 -102.9C-51.2 -108.4 -40.4 -110.2 -30.1 -112.2C-19.7 -114.3 -9.9 -116.5 0 -118.8L0 0Z" fill="#173e67"></path></g><g transform="translate(0, 0)"><path d="M594 0C585.2 50.7 576.4 101.5 564.1 151.2C551.8 200.8 536.1 249.5 511.8 295.5C487.5 341.5 454.5 384.9 413 413C371.4 441 321.1 453.6 278 481.5C234.9 509.4 198.9 552.5 153.7 573.8C108.6 595 54.3 594.5 0 594L0 0Z" fill="#0f2c4b"></path><path d="M475.2 0C468.1 40.6 461.1 81.2 451.3 120.9C441.5 160.7 428.9 199.6 409.5 236.4C390 273.2 363.6 307.9 330.4 330.4C297.1 352.8 256.9 362.9 222.4 385.2C187.9 407.5 159.1 442 123 459C86.9 476 43.4 475.6 0 475.2L0 0Z" fill="#113153"></path><path d="M356.4 0C351.1 30.4 345.8 60.9 338.5 90.7C331.1 120.5 321.7 149.7 307.1 177.3C292.5 204.9 272.7 231 247.8 247.8C222.8 264.6 192.7 272.2 166.8 288.9C140.9 305.6 119.3 331.5 92.2 344.3C65.2 357 32.6 356.7 0 356.4L0 0Z" fill="#13365b"></path><path d="M237.6 0C234.1 20.3 230.5 40.6 225.6 60.5C220.7 80.3 214.5 99.8 204.7 118.2C195 136.6 181.8 154 165.2 165.2C148.5 176.4 128.4 181.5 111.2 192.6C94 203.8 79.6 221 61.5 229.5C43.4 238 21.7 237.8 0 237.6L0 0Z" fill="#163b63"></path><path d="M118.8 0C117 10.1 115.3 20.3 112.8 30.2C110.4 40.2 107.2 49.9 102.4 59.1C97.5 68.3 90.9 77 82.6 82.6C74.3 88.2 64.2 90.7 55.6 96.3C47 101.9 39.8 110.5 30.7 114.8C21.7 119 10.9 118.9 0 118.8L0 0Z" fill="#173e67"></path></g></svg>