<svg id="visual" viewBox="0 0 1080 1920" width="1080" height="1920" xmlns="http://www.w3.org/2000/svg" xmlns:xlink="http://www.w3.org/1999/xlink" version="1.1"><rect x="0" y="0" width="1080" height="1920" fill="#0E2A47"></rect><defs><linearGradient id="grad1_0" x1="0%" y1="100%" x2="100%" y2="0%"><stop offset="30%" stop-color="#173e67" stop-opacity="1"></stop><stop offset="70%" stop-color="#173e67" stop-opacity="1"></stop></linearGradient></defs><defs><linearGradient id="grad1_1" x1="0%" y1="100%" x2="100%" y2="0%"><stop offset="30%" stop-color="#173e67" stop-opacity="1"></stop><stop offset="70%" stop-color="#15395f" stop-opacity="1"></stop></linearGradient></defs><defs><linearGradient id="grad1_2" x1="0%" y1="100%" x2="100%" y2="0%"><stop offset="30%" stop-color="#123457" stop-opacity="1"></stop><stop offset="70%" stop-color="#15395f" stop-opacity="1"></stop></linearGradient></defs><defs><linearGradient id="grad1_3" x1="0%" y1="100%" x2="100%" y2="0%"><stop offset="30%" stop-color="#123457" stop-opacity="1"></stop><stop offset="70%" stop-color="#102f4f" stop-opacity="1"></stop></linearGradient></defs><defs><linearGradient id="grad1_4" x1="0%" y1="100%" x2="100%" y2="0%"><stop offset="30%" stop-color="#0e2a47" stop-opacity="1"></stop><stop offset="70%" stop-color="#102f4f" stop-opacity="1"></stop></linearGradient></defs><defs><linearGradient id="grad2_0" x1="0%" y1="100%" x2="100%" y2="0%"><stop offset="30%" stop-color="#173e67" stop-opacity="1"></stop><stop offset="70%" stop-color="#173e67" stop-opacity="1"></stop></linearGradient></defs><defs><linearGradient id="grad2_1" x1="0%" y1="100%" x2="100%" y2="0%"><stop offset="30%" stop-color="#15395f" stop-opacity="1"></stop><stop offset="70%" stop-color="#173e67" stop-opacity="1"></stop></linearGradient></defs><defs><linearGradient id="grad2_2" x1="0%" y1="100%" x2="100%" y2="0%"><stop offset="30%" stop-color="#15395f" stop-opacity="1"></stop><stop offset="70%" stop-color="#123457" stop-opacity="1"></stop></linearGradient></defs><defs><linearGradient id="grad2_3" x1="0%" y1="100%" x2="100%" y2="0%"><stop offset="30%" stop-color="#102f4f" stop-opacity="1"></stop><stop offset="70%" stop-color="#123457" stop-opacity="1"></stop></linearGradient></defs><defs><linearGradient id="grad2_4" x1="0%" y1="100%" x2="100%" y2="0%"><stop offset="30%" stop-color="#102f4f" stop-opacity="1"></stop><stop offset="70%" stop-color="#0e2a47" stop-opacity="1"></stop></linearGradient></defs><g transform="translate(1080, 1920)"><path d="M-486 0C-459.7 -36 -433.4 -71.9 -426.9 -114.4C-420.5 -156.9 -434 -205.9 -420.9 -243C-407.7 -280.1 -368 -305.1 -334.5 -334.5C-301 -363.8 -273.7 -397.4 -237.5 -411.4C-201.3 -425.3 -156 -419.7 -114.9 -428.9C-73.8 -438 -36.9 -462 0 -486L0 0Z" fill="#0f2c4b"></path><path d="M-388.8 0C-367.7 -28.8 -346.7 -57.5 -341.6 -91.5C-336.4 -125.5 -347.2 -164.8 -336.7 -194.4C-326.2 -224 -294.4 -244.1 -267.6 -267.6C-240.8 -291 -219 -317.9 -190 -329.1C-161 -340.3 -124.8 -335.8 -91.9 -343.1C-59.1 -350.4 -29.5 -369.6 0 -388.8L0 0Z" fill="#113153"></path><path d="M-291.6 0C-275.8 -21.6 -260 -43.1 -256.2 -68.6C-252.3 -94.1 -260.4 -123.6 -252.5 -145.8C-244.6 -168 -220.8 -183.1 -200.7 -200.7C-180.6 -218.3 -164.2 -238.4 -142.5 -246.8C-120.8 -255.2 -93.6 -251.8 -68.9 -257.3C-44.3 -262.8 -22.1 -277.2 0 -291.6L0 0Z" fill="#13365b"></path><path d="M-194.4 0C-183.9 -14.4 -173.3 -28.8 -170.8 -45.8C-168.2 -62.8 -173.6 -82.4 -168.4 -97.2C-163.1 -112 -147.2 -122.1 -133.8 -133.8C-120.4 -145.5 -109.5 -159 -95 -164.5C-80.5 -170.1 -62.4 -167.9 -46 -171.5C-29.5 -175.2 -14.8 -184.8 0 -194.4L0 0Z" fill="#163b63"></path><path d="M-97.2 0C-91.9 -7.2 -86.7 -14.4 -85.4 -22.9C-84.1 -31.4 -86.8 -41.2 -84.2 -48.6C-81.5 -56 -73.6 -61 -66.9 -66.9C-60.2 -72.8 -54.7 -79.5 -47.5 -82.3C-40.3 -85.1 -31.2 -83.9 -23 -85.8C-14.8 -87.6 -7.4 -92.4 0 -97.2L0 0Z" fill="#173e67"></path></g><g transform="translate(0, 0)"><path d="M486 0C471.6 40.9 457.2 81.7 440.5 118C423.8 154.3 404.8 186 391.4 226C378.1 266 370.3 314.1 343.7 343.7C317 373.2 271.6 384 233 403.6C194.4 423.1 162.7 451.4 125 466.5C87.3 481.7 43.7 483.9 0 486L0 0Z" fill="#0f2c4b"></path><path d="M388.8 0C377.3 32.7 365.7 65.4 352.4 94.4C339 123.5 323.9 148.8 313.2 180.8C302.5 212.8 296.2 251.3 274.9 274.9C253.6 298.5 217.3 307.2 186.4 322.9C155.5 338.5 130.2 361.1 100 373.2C69.9 385.4 34.9 387.1 0 388.8L0 0Z" fill="#113153"></path><path d="M291.6 0C282.9 24.5 274.3 49 264.3 70.8C254.3 92.6 242.9 111.6 234.9 135.6C226.8 159.6 222.2 188.5 206.2 206.2C190.2 223.9 163 230.4 139.8 242.1C116.6 253.9 97.6 270.8 75 279.9C52.4 289 26.2 290.3 0 291.6L0 0Z" fill="#13365b"></path><path d="M194.4 0C188.6 16.3 182.9 32.7 176.2 47.2C169.5 61.7 161.9 74.4 156.6 90.4C151.2 106.4 148.1 125.7 137.5 137.5C126.8 149.3 108.6 153.6 93.2 161.4C77.8 169.2 65.1 180.5 50 186.6C34.9 192.7 17.5 193.5 0 194.4L0 0Z" fill="#163b63"></path><path d="M97.2 0C94.3 8.2 91.4 16.3 88.1 23.6C84.8 30.9 81 37.2 78.3 45.2C75.6 53.2 74.1 62.8 68.7 68.7C63.4 74.6 54.3 76.8 46.6 80.7C38.9 84.6 32.5 90.3 25 93.3C17.5 96.3 8.7 96.8 0 97.2L0 0Z" fill="#173e67"></path></g></svg>